<?xml version="1.0" encoding="UTF-8" standalone="no" ?>
<!DOCTYPE svg PUBLIC "-//W3C//DTD SVG 1.1//EN" "http://www.w3.org/Graphics/SVG/1.1/DTD/svg11.dtd">
<svg xmlns="http://www.w3.org/2000/svg" xmlns:xlink="http://www.w3.org/1999/xlink" version="1.1" width="500" height="500" viewBox="0 0 100 100" xml:space="preserve">
<desc>Created with Fabric.js 5.3.0</desc>
<defs>
</defs>
<g transform="matrix(2 0 0 2 50 50)" id="FLQ4ippVDLrpmOwI5dEsg"  >
<path style="stroke: none; stroke-width: 1; stroke-dasharray: none; stroke-linecap: butt; stroke-dashoffset: 0; stroke-linejoin: miter; stroke-miterlimit: 10; fill: rgb(211,240,204); fill-rule: nonzero; opacity: 1;"  transform=" translate(-25, -25)" d="M 9 4 C 6.25048 4 4 6.25048 4 9 L 4 41 C 4 43.74952 6.25048 46 9 46 L 41 46 C 43.74952 46 46 43.74952 46 41 L 46 9 C 46 6.25048 43.74952 4 41 4 z M 9 6 L 41 6 C 42.66848 6 44 7.33152 44 9 L 44 41 C 44 42.66848 42.66848 44 41 44 L 9 44 C 7.33152 44 6 42.66848 6 41 L 6 9 C 6 7.33152 7.33152 6 9 6 z M 14 11.01172 C 12.90478 11.01172 11.91922 11.339080000000001 11.18945 11.95313 C 10.45968 12.56718 10.01172 13.48452 10.01172 14.4668 C 10.01172 16.33398 11.63129 17.78961 13.691410000000001 17.9336 C 13.692710000000002 17.93425 13.69401 17.9349 13.69532 17.93555 C 13.79349 17.96901 13.89631 17.98681 14.000010000000001 17.98828 C 16.273020000000002 17.98828 17.988290000000003 16.396079999999998 17.988290000000003 14.4668 C 17.988110000000002 14.449209999999999 17.987460000000002 14.431619999999999 17.986340000000002 14.41406 C 17.884590000000003 12.513829999999999 16.190450000000002 11.011719999999999 14.000010000000001 11.011719999999999 z M 14 12.98828 C 15.39223 12.98828 15.94197 13.61004 16.00195 14.492189999999999 C 15.9898 15.348439999999998 15.460090000000001 16.01172 14 16.01172 C 12.61459 16.01172 11.98828 15.30223 11.98828 14.466800000000001 C 11.98828 14.049090000000001 12.140699999999999 13.734300000000001 12.460939999999999 13.464850000000002 C 12.78117 13.195400000000001 13.295219999999999 12.988290000000003 14 12.988290000000003 z M 11 19 C 10.44774 19.00006 10.00006 19.44774 10 20 L 10 39 C 10.00006 39.55226 10.44774 39.99994 11 40 L 17 40 C 17.55226 39.99994 17.99994 39.55226 18 39 L 18 33.13477 L 18 20.000000000000004 C 17.99994 19.447740000000003 17.55226 19.000060000000005 17 19.000000000000004 z M 20 19 C 19.44774 19.00006 19.00006 19.44774 19 20 L 19 39 C 19.00006 39.55226 19.44774 39.99994 20 40 L 26 40 C 26.55226 39.99994 26.99994 39.55226 27 39 L 27 29 C 27 28.17033 27.22639 27.34503 27.625 26.80469 C 28.02361 26.26434 28.52647 25.940060000000003 29.48242 25.95703 C 30.46816 25.97398 30.990000000000002 26.31167 31.38476 26.8418 C 31.77953 27.37193 31.99999 28.16667 31.99999 29 L 31.99999 39 C 32.00005 39.55226 32.44773 39.99994 32.99999 40 L 38.99999 40 C 39.552249999999994 39.99994 39.99993 39.55226 39.99999 39 L 39.99999 28.26172 C 39.99999 25.30018 39.12278 22.95433 37.61913 21.36719 C 36.11548 19.78005 34.024159999999995 19 31.812489999999997 19 C 29.710469999999997 19 28.110839999999996 19.70489 26.999989999999997 20.42383 L 26.999989999999997 20 C 26.999929999999996 19.44774 26.552249999999997 19.00006 25.999989999999997 19 z M 12 21 L 16 21 L 16 33.13477 L 16 38 L 12 38 z M 21 21 L 25 21 L 25 22.56055 C 25.00013 22.99055 25.27511 23.372339999999998 25.68291 23.50872 C 26.09072 23.6451 26.54005 23.50553 26.79882 23.162110000000002 C 26.79882 23.162110000000002 28.36919 21 31.81249 21 C 33.56582 21 35.06936 21.58258 36.16796 22.74219 C 37.26656 23.9018 37.999990000000004 25.68826 37.999990000000004 28.26172 L 37.999990000000004 38 L 33.999990000000004 38 L 33.999990000000004 29 C 33.999990000000004 27.83333 33.72046 26.627110000000002 32.99022 25.64648 C 32.25999 24.665860000000002 31.03182 23.98307 29.51756 23.95703 C 27.99552 23.93 26.7475 24.62699 26.01561 25.619139999999998 C 25.28372 26.611289999999997 24.99999 27.829669999999997 24.99999 29 L 24.99999 38 L 20.99999 38 z" stroke-linecap="round" />
</g>
</svg>