<?xml version="1.0" encoding="UTF-8" standalone="no" ?>
<!DOCTYPE svg PUBLIC "-//W3C//DTD SVG 1.1//EN" "http://www.w3.org/Graphics/SVG/1.1/DTD/svg11.dtd">
<svg xmlns="http://www.w3.org/2000/svg" xmlns:xlink="http://www.w3.org/1999/xlink" version="1.1" width="100" height="100" viewBox="0 0 100 100" xml:space="preserve">
<desc>Created with Fabric.js 5.3.0</desc>
<defs>
</defs>
<g transform="matrix(2 0 0 2 50 50)" id="m6Yxiy01Hda2nBfiWigK4"  >
<path style="stroke: none; stroke-width: 1; stroke-dasharray: none; stroke-linecap: butt; stroke-dashoffset: 0; stroke-linejoin: miter; stroke-miterlimit: 10; fill: rgb(211,240,204); fill-rule: nonzero; opacity: 1;"  transform=" translate(-24.999995, -24.99999)" d="M 25 2 C 12.30953 2 2 12.30953 2 25 C 2 29.0791 3.11869 32.88588 4.98438 36.20898 L 2.0371099999999998 46.730459999999994 C 1.9412899999999997 47.07307999999999 2.0347 47.44080999999999 2.2824199999999997 47.696169999999995 C 2.53014 47.95153 2.8948599999999995 48.056059999999995 3.2402299999999995 47.97069 L 14.210930000000001 45.25194 C 17.434620000000002 46.972919999999995 21.09258 47.99999 24.99999 47.99999 C 37.69046 47.99999 47.99999 37.690459999999995 47.99999 24.999989999999997 C 47.99999 12.309519999999997 37.690459999999995 1.9999899999999968 24.999989999999997 1.9999899999999968 z M 25 4 C 36.60953 4 46 13.39047 46 25 C 46 36.60953 36.60953 46 25 46 C 21.27802 46 17.79212 45.02963 14.76172 43.33398 C 14.54008 43.21013 14.27964 43.175219999999996 14.0332 43.23632 L 4.425780000000001 45.61718 L 7.001950000000001 36.42577 C 7.076440000000001 36.16329 7.04046 35.88178 6.902340000000001 35.64647 C 5.0606800000000005 32.52358 4 28.89009 4 24.99999 C 4 13.390460000000001 13.39047 3.9999900000000004 25 3.9999900000000004 z M 16.64258 13 C 16.00154 13 15.086049999999998 13.23849 14.333989999999998 14.04883 C 13.882269999999998 14.53555 12.000009999999998 16.369510000000002 12.000009999999998 19.59375 C 12.000009999999998 22.95527 14.331399999999999 25.85585 14.613289999999997 26.22852 L 14.615239999999998 26.22852 L 14.615239999999998 26.23047 C 14.588499999999998 26.195330000000002 14.973039999999997 26.75219 15.486329999999999 27.41992 C 15.999629999999998 28.08765 16.717409999999997 28.964640000000003 17.619139999999998 29.91406 C 19.42261 31.81291 21.95828 34.007419999999996 25.105469999999997 35.34961 C 26.554789999999997 35.96678 27.698179999999997 36.33942 28.564449999999997 36.611329999999995 C 30.169839999999997 37.115429999999996 31.63207 37.038799999999995 32.73047 36.87696 C 33.55262999999999 36.75588 34.45688 36.36112 35.35156 35.794929999999994 C 36.246249999999996 35.228739999999995 37.12309 34.52472999999999 37.50976 33.45508999999999 C 37.78677 32.68825999999999 37.92759 31.97960999999999 37.97851 31.396499999999993 C 38.00397 31.104939999999992 38.0072 30.847619999999992 37.98828 30.609389999999994 C 37.96931 30.371159999999993 37.989580000000004 30.188679999999994 37.76758 29.824229999999993 C 37.30201 29.05981999999999 36.774750000000004 29.039859999999994 36.224610000000006 28.76758999999999 C 35.918940000000006 28.61630999999999 35.048660000000005 28.19133999999999 34.17578 27.77539999999999 C 33.30388000000001 27.35992999999999 32.54892 26.99195999999999 32.083980000000004 26.82617999999999 C 31.790230000000005 26.72049999999999 31.431550000000005 26.56835999999999 30.914060000000003 26.62695999999999 C 30.396570000000004 26.685559999999988 29.885460000000002 27.05893999999999 29.58789 27.50000999999999 C 29.30584 27.91807999999999 28.17039 29.25835999999999 27.82422 29.652349999999988 C 27.81962 29.649549999999987 27.84966 29.66338999999999 27.71289 29.595709999999986 C 27.284760000000002 29.383819999999986 26.76116 29.203659999999985 25.986330000000002 28.794929999999987 C 25.2115 28.386199999999988 24.24226 27.782639999999986 23.18164 26.847659999999987 L 23.18164 26.845709999999986 C 21.60303 25.455959999999987 20.49727 23.711109999999987 20.14844 23.125009999999985 C 20.17194 23.097049999999985 20.14565 23.130909999999986 20.19531 23.082039999999985 L 20.19726 23.080089999999984 C 20.55378 22.728939999999984 20.86973 22.309529999999985 21.13671 22.001969999999986 C 21.51525 21.565879999999986 21.6823 21.181449999999987 21.86327 20.822279999999985 C 22.22394 20.106449999999985 22.02312 19.318759999999983 21.81444 18.904309999999985 L 21.81444 18.902359999999984 C 21.828850000000003 18.931029999999986 21.70156 18.650169999999985 21.56444 18.326189999999983 C 21.426930000000002 18.001279999999984 21.25165 17.580059999999982 21.06444 17.130879999999983 C 20.69002 16.232519999999983 20.27201 15.224929999999983 20.02342 14.634789999999983 L 20.02342 14.632839999999982 C 19.73057 13.937709999999981 19.334380000000003 13.436939999999982 18.816390000000002 13.195339999999982 C 18.2984 12.953739999999982 17.840760000000003 13.022429999999982 17.82225 13.021509999999981 L 17.8203 13.021509999999981 C 17.45066 13.004459999999982 17.04503 13.000029999999981 16.64257 13.000029999999981 z M 16.64258 15 C 17.028119999999998 15 17.40822 15.0047 17.72656 15.01953 C 18.05405 15.03585 18.03368 15.037189999999999 17.9707 15.00781 C 17.90671 14.97797 17.99353 14.96828 18.17968 15.41015 C 18.423090000000002 15.988 18.84316 16.99924 19.21874 17.90038 C 19.40653 18.350949999999997 19.58228 18.773809999999997 19.72265 19.105459999999997 C 19.863010000000003 19.437109999999997 19.93907 19.622289999999996 20.027340000000002 19.798819999999996 L 20.027340000000002 19.800769999999996 L 20.029290000000003 19.802719999999997 C 20.115830000000003 19.97347 20.108180000000004 19.86415 20.078120000000002 19.923809999999996 C 19.86709 20.342639999999996 19.83846 20.445469999999997 19.625000000000004 20.691389999999995 C 19.299980000000005 21.065819999999995 18.968450000000004 21.483389999999996 18.792970000000004 21.656229999999994 C 18.639440000000004 21.807049999999993 18.362420000000004 22.042009999999994 18.189450000000004 22.501929999999994 C 18.016220000000004 22.962559999999993 18.097070000000006 23.594549999999995 18.375000000000004 24.066379999999995 C 18.745030000000003 24.694569999999995 19.964410000000004 26.679279999999995 21.85938 28.347629999999995 C 23.052760000000003 29.399649999999994 24.16457 30.095909999999996 25.05274 30.564429999999994 C 25.94091 31.032949999999996 26.66431 31.306579999999993 26.82618 31.386699999999994 C 27.21056 31.576929999999994 27.630660000000002 31.724649999999993 28.11915 31.665999999999993 C 28.60764 31.607349999999993 29.02879 31.310959999999994 29.29688 31.007799999999992 L 29.298830000000002 31.00584999999999 C 29.655630000000002 30.601339999999993 30.715850000000003 29.39071999999999 31.224610000000002 28.644519999999993 C 31.246170000000003 28.652119999999993 31.239110000000004 28.646219999999992 31.4082 28.707019999999993 L 31.4082 28.708969999999994 L 31.41015 28.708969999999994 C 31.487350000000003 28.736459999999994 32.454280000000004 29.169249999999995 33.3164 29.580059999999992 C 34.17852 29.990869999999994 35.053560000000004 30.417859999999994 35.33788 30.558579999999992 C 35.74821 30.761659999999992 35.942099999999996 30.893869999999993 35.99218 30.894519999999993 C 35.99556 30.982499999999995 35.998979999999996 31.077849999999994 35.98632 31.222649999999994 C 35.95125 31.624289999999995 35.84389 32.18021999999999 35.6289 32.77537999999999 C 35.52358 33.06673999999999 34.975010000000005 33.667649999999995 34.2832 34.105459999999994 C 33.591390000000004 34.54326999999999 32.749340000000004 34.852509999999995 32.4375 34.89842999999999 C 31.4999 35.036579999999994 30.38667 35.08701999999999 29.16406 34.70311999999999 C 28.31633 34.43702999999999 27.2593 34.092589999999994 25.89062 33.50975999999999 C 23.11481 32.32594999999999 20.755589999999998 30.31150999999999 19.07031 28.53709999999999 C 18.22767 27.64989999999999 17.55256 26.82400999999999 17.07226 26.199209999999994 C 16.59286 25.575569999999992 16.38352 25.251049999999992 16.20898 25.021479999999993 L 16.20703 25.019529999999992 C 15.8972 24.609799999999993 14 21.97084999999999 14 19.593749999999993 C 14 17.077989999999993 15.1685 16.09143999999999 15.80078 15.410159999999994 C 16.13272 15.052499999999995 16.49562 14.999999999999995 16.64258 14.999999999999995 z" stroke-linecap="round" />
</g>
</svg>